<svg width="34" height="25" viewBox="0 0 34 25" fill="none" xmlns="http://www.w3.org/2000/svg">
<path d="M30.6944 1.26775H22.0823V4.05808H30.7284L30.6944 1.26775ZM28.8769 20.4636C28.2235 20.9679 27.452 21.2238 26.6686 21.1958C26.1501 21.2588 25.626 21.1964 25.1291 21.0125C24.6322 20.8286 24.1732 20.5272 23.7809 20.1272C23.0572 19.1681 22.6798 17.9201 22.7278 16.6442H33.9728C34.053 15.3155 33.9556 13.9802 33.684 12.6863C33.4197 11.4558 32.9587 10.2943 32.3251 9.26273C31.6853 8.26397 30.861 7.44561 29.913 6.86819C28.8566 6.26387 27.6926 5.95874 26.5158 5.97766C25.4089 5.96928 24.3117 6.21821 23.2883 6.70988C22.3513 7.1695 21.5024 7.84228 20.7913 8.68883C20.082 9.55188 19.5327 10.5758 19.1776 11.6968C18.7966 12.9071 18.6067 14.1876 18.6171 15.4766C18.5989 16.784 18.783 18.0845 19.1607 19.3158C19.4825 20.4301 19.9905 21.4592 20.6555 22.3436C21.3449 23.2107 22.1923 23.8869 23.1355 24.3226C24.1871 24.7894 25.3056 25.0177 26.4308 24.9954C28.0096 25.0528 29.5683 24.5713 30.9152 23.6101C32.2767 22.4851 33.2565 20.8394 33.684 18.9596H29.93C29.7291 19.5813 29.3592 20.1094 28.8769 20.4636ZM23.0505 12.3103C23.1827 11.8169 23.4022 11.3613 23.6948 10.9727C23.9873 10.5841 24.3465 10.2713 24.7492 10.0543C25.2828 9.77596 25.8633 9.6407 26.4478 9.65852C26.8701 9.6165 27.2952 9.6814 27.694 9.84878C28.0927 10.0162 28.4557 10.282 28.758 10.6282C29.3359 11.4508 29.7064 12.4442 29.8281 13.4977H22.7788C22.8062 13.0955 22.8689 12.6977 22.9656 12.3103H23.0505ZM14.0647 11.3604C14.9293 10.941 15.6805 10.2573 16.239 9.38146C16.7544 8.45243 17.0096 7.35992 16.9694 6.25472C17.0015 5.24722 16.8329 4.24476 16.4768 3.32586C16.1767 2.53016 15.6949 1.84566 15.0839 1.34691C14.4372 0.826174 13.7012 0.475083 12.9266 0.317852C12.0109 0.0934262 11.0766 -0.0127584 10.1409 0.00121993H0V24.8965H10.3617C11.3073 24.8962 12.249 24.7566 13.1645 24.4809C14.0315 24.2175 14.8531 23.7824 15.5935 23.1946C16.3113 22.618 16.895 21.8428 17.2921 20.9386C17.7343 19.9292 17.9505 18.806 17.9206 17.6733C17.9528 16.2697 17.6149 14.8883 16.9524 13.7154C16.24 12.5358 15.1833 11.6987 13.9798 11.3604H14.0647ZM4.70523 4.25597H9.10471C9.50895 4.25368 9.91256 4.29341 10.3107 4.37471C10.678 4.43592 11.0306 4.58408 11.3469 4.81008C11.6533 5.01196 11.9015 5.31492 12.0603 5.68082C12.2586 6.11893 12.3525 6.61095 12.3321 7.10567C12.3638 7.53161 12.3079 7.96021 12.169 8.35598C12.0302 8.75174 11.8124 9.10327 11.5338 9.38146C10.9259 9.86835 10.1984 10.1115 9.46142 10.0741H4.70523V4.25597ZM12.9266 18.9794C12.7508 19.3816 12.4872 19.7229 12.1623 19.9689C11.823 20.2147 11.4493 20.3888 11.0581 20.4834C10.6235 20.5973 10.1787 20.6505 9.7332 20.6417H4.63729V13.8143H9.7332C10.6077 13.7697 11.4713 14.0542 12.1962 14.6257C12.5237 14.9681 12.7775 15.3956 12.9368 15.8735C13.0962 16.3513 13.1567 16.8662 13.1135 17.3764C13.1576 17.9204 13.0936 18.4688 12.9266 18.9794Z" fill="#F4F4FB"/>
</svg>
