<svg width="28" height="27" viewBox="0 0 28 27" fill="none" xmlns="http://www.w3.org/2000/svg">
<path d="M13.8809 9.42474L10.9861 11.4279C11.3687 12.4381 11.9033 13.4103 12.5788 14.3248C13.2834 15.2325 14.1324 16.0687 15.1061 16.8139L18.8551 15.923C20.9553 15.4235 23.2481 15.9365 24.6448 17.2189L26.78 19.1789C27.6446 19.9657 28.078 20.9812 27.9884 22.0103C27.8989 23.0393 27.2935 24.001 26.3005 24.6917C22.8175 27.1431 17.4549 27.9719 13.4399 25.5395C9.90958 23.3979 6.92361 20.7709 4.63279 17.7912C2.33614 14.8262 0.798492 11.5489 0.103229 8.13696C-0.666866 4.29794 2.97709 1.22564 7.52065 0.178139C10.23 -0.4482 13.1213 0.626295 14.1155 2.6295L15.2881 4.99177C16.0582 6.54682 15.5051 8.30164 13.8809 9.42474Z" fill="#F4F4FB"/>
</svg>
