<svg width="29" height="27" viewBox="0 0 29 27" fill="none" xmlns="http://www.w3.org/2000/svg">
<g clip-path="url(#clip0_891_793)">
<path d="M7.75455 1C5.75788 2.00292 4.03213 3.44518 2.71599 5.21089C1.39984 6.9766 0.53002 9.01652 0.176414 11.1667H1.01055C6.38926 11.0461 10.6059 10.5951 14.0499 9.57432C12.5542 7.00759 10.7287 4.48912 8.53883 1.92796L8.53691 1.9261L7.75455 1ZM0.00383509 13.0226L0 13.3567C0 17.1001 1.52637 20.4982 4.00959 23L4.31831 22.3987L4.37584 22.3022C7.55513 17.6216 11.1524 14.8377 15.1755 13.5887C15.4477 13.5033 15.7226 13.4253 16 13.3548C15.6777 12.6402 15.3343 11.9347 14.9703 11.2391C11.2023 12.4139 6.67306 12.8964 1.04314 13.0208H0.00575264" fill="#F4F4FB"/>
<path d="M6 24.1074C8.50344 25.9852 11.6011 27.0045 14.7908 27C16.4826 27 18.1063 26.7192 19.6086 26.2044V24.9084C19.1464 21.4254 18.3336 18.2304 17.1116 15.1812C16.7895 15.2568 16.47 15.3426 16.153 15.4386C12.7011 16.4916 9.47463 18.864 6.51911 23.121L6 24.1074ZM21.5032 25.4016C23.3348 24.4681 24.9288 23.1647 26.1733 21.5831C27.4177 20.0015 28.2824 18.18 28.7063 16.2468L27.6359 15.7878C24.5553 14.9274 21.6851 14.5746 19.01 14.8608C20.2187 17.9568 21.0315 21.2076 21.4956 24.7392C21.5007 24.7752 21.5032 24.8124 21.5032 24.8508V25.4016ZM28.9697 14.3856C28.9899 14.0928 29 13.7976 29 13.5C29.0052 10.2627 27.7809 7.13221 25.5519 4.68361L24.9873 5.27581C22.7707 7.83721 20.2395 9.61381 17.1628 10.8234C17.5644 11.5854 17.9389 12.3558 18.2862 13.1346C21.4539 12.7026 24.7846 13.1094 28.2346 14.0796L28.3577 14.1228L28.9697 14.3856ZM24.2181 3.39841C21.6214 1.20439 18.2658 -0.00524276 14.7908 1.70816e-05C13.1273 1.70816e-05 11.5321 0.270017 10.0487 0.770416L10.4806 1.27082C12.792 3.92221 14.7093 6.54301 16.2742 9.22321C19.1975 8.10181 21.5146 6.46201 23.538 4.11661L23.5664 4.08421L24.2181 3.39841Z" fill="#F4F4FB"/>
</g>
<defs>
<clipPath id="clip0_891_793">
<rect width="29" height="27" fill="white"/>
</clipPath>
</defs>
</svg>
