<svg width="27" height="27" viewBox="0 0 27 27" fill="none" xmlns="http://www.w3.org/2000/svg">
<path d="M5.66632 3.00133C5.66594 3.79694 5.36709 4.5598 4.8355 5.1221C4.30392 5.68439 3.58314 6.00007 2.83174 5.99967C2.08034 5.99927 1.35987 5.68283 0.828811 5.11998C0.297757 4.55712 -0.000375346 3.79394 3.54657e-07 2.99833C0.000376055 2.20273 0.299229 1.43987 0.830815 0.87757C1.3624 0.315274 2.08317 -0.000397427 2.83458 3.75521e-07C3.58598 0.000398178 4.30645 0.316833 4.83751 0.879692C5.36856 1.44255 5.66669 2.20573 5.66632 3.00133ZM5.75131 8.22104H0.084995V27H5.75131V8.22104ZM14.7041 8.22104H9.06611V27H14.6474V17.1455C14.6474 11.6559 21.4045 11.1459 21.4045 17.1455V27H27V15.1057C27 5.85117 16.999 6.19616 14.6474 10.7409L14.7041 8.22104Z" fill="#F4F4FB"/>
</svg>
