<svg width="25" height="29" viewBox="0 0 25 29" fill="none" xmlns="http://www.w3.org/2000/svg">
<path d="M12.5 13.775C11.316 13.775 10.1805 13.3931 9.34327 12.7133C8.50606 12.0334 8.03571 11.1114 8.03571 10.15C8.03571 9.18859 8.50606 8.26656 9.34327 7.58674C10.1805 6.90692 11.316 6.525 12.5 6.525C13.684 6.525 14.8195 6.90692 15.6567 7.58674C16.4939 8.26656 16.9643 9.18859 16.9643 10.15C16.9643 10.626 16.8488 11.0974 16.6245 11.5372C16.4001 11.977 16.0713 12.3767 15.6567 12.7133C15.2422 13.0499 14.75 13.3169 14.2084 13.4991C13.6668 13.6812 13.0863 13.775 12.5 13.775ZM12.5 0C9.18479 0 6.00537 1.06937 3.66117 2.97287C1.31696 4.87636 0 7.45805 0 10.15C0 17.7625 12.5 29 12.5 29C12.5 29 25 17.7625 25 10.15C25 7.45805 23.683 4.87636 21.3388 2.97287C18.9946 1.06937 15.8152 0 12.5 0Z" fill="#F4F4FB"/>
</svg>
