<svg width="59" height="36" viewBox="0 0 59 36" fill="none" xmlns="http://www.w3.org/2000/svg">
<path d="M19.504 11.576C19.408 10.04 19.04 8.584 18.4 7.208C17.76 5.832 16.832 4.712 15.616 3.848C14.4 2.984 12.848 2.552 10.96 2.552C8.976 2.552 7.456 3.112 6.4 4.232C5.344 5.352 4.816 6.664 4.816 8.168C4.816 9.512 5.2 10.648 5.968 11.576C6.736 12.472 7.728 13.272 8.944 13.976C10.192 14.648 11.504 15.304 12.88 15.944C14.096 16.488 15.312 17.08 16.528 17.72C17.744 18.328 18.848 19.032 19.84 19.832C20.832 20.632 21.616 21.592 22.192 22.712C22.8 23.8 23.104 25.112 23.104 26.648C23.104 28.408 22.656 29.976 21.76 31.352C20.896 32.728 19.632 33.816 17.968 34.616C16.304 35.384 14.272 35.768 11.872 35.768C10.432 35.768 8.944 35.56 7.408 35.144C5.872 34.728 4.512 34.12 3.328 33.32L3.568 35.384H1.072L0.784 25.16H2.656C2.816 27.976 3.792 30.12 5.584 31.592C7.376 33.032 9.536 33.752 12.064 33.752C13.312 33.752 14.464 33.528 15.52 33.08C16.576 32.6 17.408 31.912 18.016 31.016C18.656 30.12 18.976 29.032 18.976 27.752C18.976 26.312 18.592 25.112 17.824 24.152C17.056 23.192 16.064 22.36 14.848 21.656C13.632 20.952 12.336 20.28 10.96 19.64C9.744 19.096 8.544 18.52 7.36 17.912C6.176 17.304 5.088 16.616 4.096 15.848C3.136 15.048 2.352 14.104 1.744 13.016C1.168 11.928 0.88 10.616 0.88 9.08C0.88 8.248 1.024 7.352 1.312 6.392C1.6 5.432 2.096 4.52 2.8 3.656C3.536 2.76 4.528 2.04 5.776 1.496C7.056 0.919999 8.672 0.631999 10.624 0.631999C11.84 0.631999 13.2 0.807999 14.704 1.16C16.24 1.48 17.664 2.12 18.976 3.08L18.784 1.016H21.232V11.576H19.504ZM27.8744 33.416C29.0904 33.352 29.9224 33.08 30.3704 32.6C30.8184 32.088 31.0584 31.4 31.0904 30.536C31.1544 29.64 31.1864 28.632 31.1864 27.512V6.776C31.1864 6.136 31.2024 5.528 31.2344 4.952C31.2664 4.344 31.2984 3.8 31.3304 3.32C30.7544 3.352 30.1784 3.384 29.6024 3.416C29.0264 3.448 28.4504 3.48 27.8744 3.512V1.4L39.2024 1.352C42.0824 1.352 44.7224 1.688 47.1224 2.36C49.5224 3.032 51.5864 4.072 53.3144 5.48C55.0744 6.856 56.4184 8.616 57.3464 10.76C58.3064 12.872 58.7864 15.368 58.7864 18.248C58.7864 20.456 58.4024 22.568 57.6344 24.584C56.8664 26.6 55.7144 28.392 54.1784 29.96C52.6424 31.496 50.7224 32.728 48.4184 33.656C46.1464 34.552 43.5064 35 40.4984 35H27.8744V33.416ZM35.3624 29.336C35.3624 30.2 35.3464 30.936 35.3144 31.544C35.3144 32.152 35.2824 32.664 35.2184 33.08C36.0824 33.112 36.8664 33.144 37.5704 33.176C38.3064 33.176 38.9144 33.176 39.3944 33.176C39.9064 33.176 40.2264 33.176 40.3544 33.176C42.4344 33.176 44.3064 32.792 45.9704 32.024C47.6664 31.256 49.1064 30.2 50.2904 28.856C51.5064 27.48 52.4344 25.88 53.0744 24.056C53.7464 22.2 54.0824 20.2 54.0824 18.056C54.0824 15.016 53.5224 12.392 52.4024 10.184C51.3144 7.944 49.6344 6.216 47.3624 5C45.0904 3.752 42.1944 3.128 38.6744 3.128C37.4904 3.128 36.6584 3.368 36.1784 3.848C35.7304 4.328 35.4744 5 35.4104 5.864C35.3784 6.728 35.3624 7.736 35.3624 8.888V29.336Z" fill="white"/>
</svg>
