<svg width="32" height="27" viewBox="0 0 32 27" fill="none" xmlns="http://www.w3.org/2000/svg">
<path d="M32 5.96484V21.9371C32.0001 23.2284 31.5323 24.4709 30.6923 25.4105C29.8524 26.35 28.7038 26.9155 27.4816 26.9912L27.2 26.9997H4.8C3.57566 26.9997 2.39758 26.5064 1.50678 25.6205C0.615989 24.7346 0.079828 23.5232 0.00800018 22.2341L0 21.9371V5.96484L15.112 16.5911L15.2976 16.7025C15.5163 16.8152 15.7566 16.8738 16 16.8738C16.2434 16.8738 16.4837 16.8152 16.7024 16.7025L16.888 16.5911L32 5.96484Z" fill="#F4F4FB"/>
<path d="M27.1999 0C28.9279 0 30.4431 0.961881 31.2879 2.40808L15.9999 13.1575L0.711914 2.40808C1.11318 1.72096 1.66438 1.14498 2.31955 0.728143C2.97472 0.311309 3.71488 0.065707 4.47831 0.0118125L4.79991 0H27.1999Z" fill="#F4F4FB"/>
</svg>
