<svg width="33" height="27" viewBox="0 0 33 27" fill="none" xmlns="http://www.w3.org/2000/svg">
<path d="M3.9138 5.508C3.93454 5.30253 3.90771 5.09496 3.83548 4.90206C3.76325 4.70916 3.64764 4.53636 3.498 4.39763L0.4158 0.572063V0H9.9825L17.3778 16.7147L23.8788 0H33V0.572063L30.365 3.1725C30.253 3.26042 30.1667 3.37792 30.1152 3.51233C30.0637 3.64674 30.0491 3.79297 30.0729 3.93525V23.0614C30.0491 23.2037 30.0637 23.3499 30.1152 23.4843C30.1667 23.6187 30.253 23.7362 30.365 23.8241L32.9389 26.4263V27H19.9964V26.4279L22.6627 23.7617C22.9251 23.4917 22.9251 23.4124 22.9251 23.0006V7.53975L15.5133 26.9359H14.5134L5.8839 7.53975V20.5403C5.81295 21.0853 5.9895 21.6371 6.3624 22.032L9.82905 26.3655V26.9359H0V26.3655L3.465 22.032C3.64834 21.8363 3.7844 21.5996 3.86233 21.3405C3.94025 21.0815 3.95788 20.8075 3.9138 20.5403V5.508Z" fill="#F4F4FB"/>
</svg>
